# Blender 3.5.1
# www.blender.org
mtllib road_4way.mtl
o inter_4way1-col
v 5.000000 0.250000 -2.006611
v 5.000000 0.000000 -3.083333
v -4.170059 0.450000 4.520833
v -4.322356 0.450000 4.322356
v -5.000000 0.250000 -5.000000
v -5.000000 0.000000 -5.000000
v -4.520833 0.450000 4.170059
v -4.751965 0.450000 4.074321
v -5.000000 0.000000 -3.083333
v -5.000000 0.000000 -2.006611
v -5.000000 0.000000 0.000000
v -4.900000 0.450000 4.041667
v 5.000000 0.250000 -3.083333
v 5.000000 0.250000 0.000000
v 5.000000 0.250000 2.006611
v -5.000000 0.000000 4.041667
v -5.000000 0.250000 4.041667
v -5.000000 0.250000 0.000000
v -5.000000 0.250000 -2.006611
v -5.000000 0.250000 -3.083333
v -3.197361 0.450000 4.900001
v 5.000000 0.000000 2.006611
v 5.000000 0.000000 0.000000
v 5.000000 0.000000 -2.006611
v -3.083333 0.250000 5.000000
v -2.006611 0.250000 5.000000
v -3.246218 0.453771 4.528895
v -3.148642 0.250000 4.503931
v -2.108609 0.250000 4.225254
v -3.427658 0.311762 4.090835
v 0.000000 0.000000 -3.083333
v 0.000000 0.000000 -2.006611
v 0.000000 0.000000 0.000000
v -2.407650 0.250000 3.503306
v 0.000000 0.250000 0.000000
v -3.715131 0.315858 3.715131
v -2.883355 0.250000 2.883354
v -4.090835 0.311762 3.427658
v -3.503306 0.250000 2.407649
v 2.500000 0.250000 -2.006611
v 2.500000 0.250000 0.000000
v -4.528894 0.453771 3.246219
v -4.503930 0.250000 3.148642
v -4.225254 0.250000 2.108608
v 2.500000 0.000000 -3.083333
v 2.500000 0.000000 -2.006611
v 2.500000 0.000000 0.000000
v -4.900000 0.450000 4.900000
v -4.900000 0.450000 3.197362
v 5.000000 0.250000 5.000000
v -2.500000 0.000000 -3.083333
v -2.500000 0.000000 -2.006611
v -2.500000 0.000000 0.000000
v 5.000000 0.000000 5.000000
v -2.500000 0.000000 2.006611
v -2.500000 0.250000 -2.006611
v -2.500000 0.250000 0.000000
v -2.500000 0.250000 2.006611
v -2.500000 0.000000 3.083333
v 2.500000 0.000000 2.006611
v 2.500000 0.000000 3.083333
v 5.000000 0.000000 -5.000000
v 5.000000 0.250000 -5.000000
v 0.000000 0.000000 2.006611
v 0.000000 0.000000 3.083333
v 5.000000 0.000000 3.083333
v -5.000000 0.250000 3.083333
v -5.000000 0.250000 2.006611
v -4.900000 0.450000 -3.197362
v -4.900000 0.450000 -4.900000
v -5.000000 0.000000 2.006611
v -5.000000 0.000000 3.083333
v -5.000000 0.000000 5.000000
v -5.000000 0.250000 5.000000
v -4.225254 0.250000 -2.108608
v -4.503930 0.250000 -3.148642
v -4.528894 0.453771 -3.246219
v -3.503306 0.250000 -2.407649
v -4.090835 0.311762 -3.427658
v -2.883355 0.250000 -2.883354
v -3.715131 0.315858 -3.715131
v -2.407650 0.250000 -3.503306
v -3.427658 0.311762 -4.090835
v -2.108609 0.250000 -4.225254
v -3.148642 0.250000 -4.503931
v -3.246218 0.453771 -4.528895
v -2.006611 0.250000 -5.000000
v -3.083333 0.250000 -5.000000
v -3.197361 0.450000 -4.900001
v -5.000000 0.250000 -4.041667
v -5.000000 0.000000 -4.041667
v -4.900000 0.450000 -4.041667
v -4.751965 0.450000 -4.074321
v -4.520833 0.450000 -4.170059
v -4.322356 0.450000 -4.322356
v -4.170059 0.450000 -4.520833
v -4.074321 0.450000 -4.751966
v -4.041667 0.450000 -4.900000
v -3.083333 0.000000 -5.000000
v 0.000000 0.250000 -2.006611
v 4.900000 0.460000 -3.197362
v 4.900000 0.460000 -4.900000
v 4.225254 0.250000 -2.108608
v 4.503930 0.250000 -3.148642
v 4.528894 0.463771 -3.246219
v 3.503306 0.250000 -2.407649
v 4.090835 0.321762 -3.427658
v 2.883355 0.250000 -2.883354
v 3.715131 0.325858 -3.715131
v 2.407650 0.250000 -3.503306
v 3.427658 0.321762 -4.090835
v 2.108609 0.250000 -4.225254
v 3.148642 0.250000 -4.503931
v 3.246218 0.463771 -4.528895
v 2.006611 0.250000 -5.000000
v 3.083333 0.250000 -5.000000
v 3.197361 0.460000 -4.900001
v 5.000000 0.250000 -4.041667
v 5.000000 0.000000 -4.041667
v 4.900000 0.460000 -4.041667
v 4.751965 0.460000 -4.074321
v 4.520833 0.460000 -4.170059
v 4.322356 0.460000 -4.322356
v 4.170059 0.460000 -4.520833
v 4.074321 0.460000 -4.751966
v 4.041667 0.460000 -4.900000
v 3.083333 0.000000 -5.000000
v 5.000000 0.400000 -4.041667
v 5.000000 0.400000 -5.000000
v 4.503930 0.400000 -3.148642
v 5.000000 0.400000 -3.083333
v 4.041667 0.250000 -3.340118
v 3.644712 0.250000 -3.644712
v 3.340118 0.250000 -4.041667
v 4.041667 0.400000 -5.000000
v 3.083333 0.400000 -5.000000
v 3.148642 0.400000 -4.503931
v -5.000000 0.400000 -4.041667
v -5.000000 0.400000 -5.000000
v -4.503930 0.400000 -3.148642
v -5.000000 0.400000 -3.083333
v -4.041667 0.250000 -3.340118
v -3.644712 0.250000 -3.644712
v -3.340118 0.250000 -4.041667
v -4.041667 0.400000 -5.000000
v -3.083333 0.400000 -5.000000
v -3.148642 0.400000 -4.503931
v -4.074321 0.450000 4.751966
v -4.041667 0.450000 4.900000
v -3.083333 0.000000 5.000000
v 5.000000 0.250000 3.083333
v 0.000000 0.250000 2.006611
v 2.500000 0.250000 2.006611
v 4.900000 0.460000 3.197362
v 4.900000 0.460000 4.900000
v 4.225254 0.250000 2.108608
v 4.503930 0.250000 3.148642
v 4.528894 0.463771 3.246219
v 3.503306 0.250000 2.407649
v 4.090835 0.321762 3.427658
v 2.883355 0.250000 2.883354
v 3.715131 0.325858 3.715131
v 2.407650 0.250000 3.503306
v 3.427658 0.321762 4.090835
v 2.108609 0.250000 4.225254
v 3.148642 0.250000 4.503931
v 3.246218 0.463771 4.528895
v 2.006611 0.250000 5.000000
v 3.083333 0.250000 5.000000
v 3.197361 0.460000 4.900001
v 5.000000 0.250000 4.041667
v 5.000000 0.000000 4.041667
v 4.900000 0.460000 4.041667
v 4.751965 0.460000 4.074321
v 4.520833 0.460000 4.170059
v 4.322356 0.460000 4.322356
v 4.170059 0.460000 4.520833
v 4.074321 0.460000 4.751966
v 4.041667 0.460000 4.900000
v 3.083333 0.000000 5.000000
v 5.000000 0.400000 4.041667
v 5.000000 0.400000 5.000000
v 4.503930 0.400000 3.148642
v 5.000000 0.400000 3.083333
v 4.041667 0.250000 3.340118
v 3.644712 0.250000 3.644712
v 3.340118 0.250000 4.041667
v 4.041667 0.400000 5.000000
v 3.083333 0.400000 5.000000
v 3.148642 0.400000 4.503931
v -5.000000 0.400000 4.041667
v -5.000000 0.400000 5.000000
v -4.503930 0.400000 3.148642
v -5.000000 0.400000 3.083333
v -4.041667 0.250000 3.340118
v -3.644712 0.250000 3.644712
v -3.340118 0.250000 4.041667
v -4.041667 0.400000 5.000000
v -3.083333 0.400000 5.000000
v -3.148642 0.400000 4.503931
vn -0.0000 1.0000 -0.0000
vn -1.0000 -0.0000 -0.0000
vn 0.0013 1.0000 0.0075
vn 1.0000 -0.0000 -0.0000
vn -0.9914 -0.0000 -0.1305
vn -0.0000 -1.0000 -0.0000
vn 0.0022 0.9784 -0.2067
vn -0.9239 -0.0000 -0.3827
vn -0.1289 0.9874 -0.0916
vn -0.0916 0.9874 -0.1288
vn -0.2067 0.9784 0.0022
vn 0.0075 1.0000 0.0013
vn -0.0000 -0.0000 1.0000
vn -0.0013 1.0000 0.0075
vn 0.9914 -0.0000 -0.1305
vn -0.0022 0.9784 -0.2067
vn 0.9239 -0.0000 -0.3827
vn 0.1289 0.9874 -0.0916
vn 0.0916 0.9874 -0.1288
vn 0.2067 0.9784 0.0022
vn 0.3827 -0.0000 -0.9239
vn -0.0075 1.0000 0.0013
vn 0.1305 -0.0000 -0.9914
vn 0.1305 -0.0000 0.9914
vn -0.0075 1.0000 -0.0013
vn 0.3827 -0.0000 0.9239
vn 0.2067 0.9784 -0.0022
vn 0.0916 0.9874 0.1288
vn 0.1289 0.9874 0.0916
vn 0.9239 -0.0000 0.3827
vn -0.0022 0.9784 0.2067
vn 0.9914 -0.0000 0.1305
vn -0.0013 1.0000 -0.0075
vn -0.0000 -0.0000 -1.0000
vn 0.0075 1.0000 -0.0013
vn -0.2067 0.9784 -0.0022
vn -0.0916 0.9874 0.1288
vn -0.1289 0.9874 0.0916
vn -0.9239 -0.0000 0.3827
vn 0.0022 0.9784 0.2067
vn -0.9914 -0.0000 0.1305
vn 0.0013 1.0000 -0.0075
vn -0.3827 -0.0000 0.9239
vn -0.1305 -0.0000 0.9914
vn 0.5145 0.8575 -0.0000
vn -0.0649 0.8512 0.5209
vn -0.3607 0.8019 0.4763
vn -0.4763 0.8019 0.3607
vn -0.0000 0.8575 -0.5145
vn -0.5209 0.8512 0.0649
vn -0.4315 0.8015 0.4140
vn -0.4140 0.8015 0.4315
vn -0.4472 0.8944 -0.0000
vn 0.0561 0.8884 0.4556
vn 0.3266 0.8407 0.4320
vn 0.4320 0.8407 0.3266
vn -0.0000 0.8944 -0.4472
vn 0.4556 0.8884 0.0561
vn 0.4181 0.8364 0.3545
vn 0.3545 0.8364 0.4181
vn -0.3827 -0.0000 -0.9239
vn -0.1305 -0.0000 -0.9914
vn -0.0649 0.8512 -0.5209
vn -0.3607 0.8019 -0.4763
vn -0.4763 0.8019 -0.3607
vn -0.0000 0.8575 0.5145
vn -0.5209 0.8512 -0.0649
vn -0.4315 0.8015 -0.4140
vn -0.4140 0.8015 -0.4315
vn 0.0561 0.8884 -0.4556
vn 0.3266 0.8407 -0.4320
vn 0.4320 0.8407 -0.3266
vn -0.0000 0.8944 0.4472
vn 0.4556 0.8884 -0.0561
vn 0.4181 0.8364 -0.3545
vn 0.3545 0.8364 -0.4181
vt 0.625000 0.583333
vt -0.125000 -0.375000
vt -0.312500 0.875000
vt -0.375000 0.750000
vt 0.375000 0.208333
vt 0.375000 0.541667
vt 0.625000 0.229167
vt 0.625000 0.229167
vt 0.625000 0.250000
vt 0.375000 0.250000
vt 0.625000 0.229167
vt 0.625000 0.229167
vt 0.375000 0.208333
vt 0.125000 0.541667
vt 0.375000 0.166667
vt 0.125000 0.583333
vt 0.375000 0.125000
vt 0.125000 0.625000
vt 0.625000 0.228880
vt 0.625000 0.541667
vt -0.312500 0.250000
vt 0.625000 0.208333
vt -0.375000 0.125000
vt 0.625000 0.625000
vt -0.125000 0.500000
vt -0.375000 0.750000
vt 0.625000 0.666667
vt -0.312500 0.875000
vt -0.125000 1.375000
vt 0.625000 0.583333
vt 0.375000 0.229167
vt 0.625000 0.229167
vt 0.625000 0.125000
vt 1.125000 0.500000
vt 0.625000 0.166667
vt 1.125000 -0.375000
vt -0.312500 0.875000
vt -0.375000 0.750000
vt -0.312500 0.250000
vt 0.625000 0.208333
vt 0.625000 0.210526
vt 0.375000 0.666667
vt 0.375000 0.583333
vt 0.375000 0.625000
vt 0.375000 0.583333
vt -0.625000 0.250000
vt 0.625000 0.208333
vt 0.000000 0.000000
vt -0.687500 0.750000
vt -0.625000 0.875000
vt 0.000000 0.000000
vt 0.625000 0.210526
vt -0.625000 0.250000
vt 0.625000 0.208333
vt -0.687500 0.750000
vt -0.625000 0.875000
vt 0.625000 0.210513
vt 0.250000 0.541667
vt 0.250000 0.583333
vt 0.250000 0.625000
vt -0.687500 0.750000
vt -0.625000 0.875000
vt 1.125000 0.500000
vt -0.125000 0.500000
vt 0.625000 0.210499
vt -0.687500 0.750000
vt -0.625000 0.875000
vt 0.625000 0.210513
vt -0.687500 0.750000
vt -0.625000 0.875000
vt 0.500000 -0.375000
vt 0.500000 0.500000
vt 0.625000 0.210526
vt 0.625000 0.208333
vt -0.625000 0.250000
vt -0.687500 0.750000
vt -0.625000 0.875000
vt 0.312500 0.541667
vt 0.312500 0.583333
vt 0.312500 0.625000
vt 0.559783 0.221739
vt 0.625000 0.210526
vt 0.625000 0.250000
vt 0.187500 0.541667
vt 0.187500 0.583333
vt 0.187500 0.625000
vt 0.375000 0.250000
vt 0.187500 0.666667
vt 0.187500 0.583333
vt 0.500000 -0.375000
vt 0.500000 0.500000
vt 0.500000 -0.375000
vt 0.500000 1.375000
vt 0.187500 0.541667
vt 0.312500 0.666667
vt 0.312500 0.583333
vt 0.312500 0.541667
vt 0.375000 0.250000
vt 0.625000 0.250000
vt 0.250000 0.666667
vt 0.250000 0.583333
vt 0.250000 0.541667
vt 0.375000 0.208333
vt 0.375000 0.541667
vt -0.312500 0.250000
vt 0.625000 0.208333
vt 0.625000 0.083333
vt 1.125000 1.375000
vt -0.375000 0.750000
vt -0.312500 0.875000
vt 0.625000 0.166667
vt 0.625000 0.210526
vt 0.559783 0.221739
vt 0.375000 0.083333
vt 0.125000 0.666667
vt 0.125000 0.583333
vt 0.375000 0.166667
vt 0.375000 0.208333
vt 0.125000 0.541667
vt 0.375000 0.250000
vt 0.625000 0.250000
vt -0.625000 0.875000
vt -0.687500 0.750000
vt 0.625000 0.208333
vt -0.625000 0.250000
vt 0.625000 0.210526
vt -0.625000 0.875000
vt -0.687500 0.750000
vt 0.625000 0.210513
vt -0.625000 0.875000
vt -0.687500 0.750000
vt 0.625000 0.210499
vt -0.625000 0.875000
vt -0.687500 0.750000
vt 0.625000 0.210513
vt -0.625000 0.875000
vt -0.687500 0.750000
vt 0.625000 0.208333
vt -0.625000 0.250000
vt 0.625000 0.210526
vt -0.625000 0.875000
vt -0.687500 0.750000
vt 0.000000 0.000000
vt -0.625000 0.250000
vt 0.625000 0.208333
vt 0.000000 0.000000
vt 0.625000 0.210526
vt 0.625000 0.229167
vt 0.375000 0.229167
vt 0.625000 0.228880
vt 0.625000 0.229167
vt 0.625000 0.229167
vt 0.625000 0.229167
vt 0.625000 0.229167
vt 0.625000 0.229167
vt 0.625000 0.229167
vt 0.000000 -0.002174
vt 0.625000 0.228880
vt 0.000000 0.000000
vt 1.125000 -0.375000
vt -0.125000 -0.375000
vt 0.625000 0.210526
vt 0.559783 0.221739
vt -0.625000 0.875000
vt -0.687500 0.750000
vt -0.625000 0.250000
vt -0.687500 0.125000
vt 0.625000 0.210526
vt -0.625000 0.875000
vt -0.687500 0.750000
vt 0.625000 0.210513
vt -0.625000 0.875000
vt -0.687500 0.750000
vt 0.625000 0.210499
vt -0.625000 0.875000
vt -0.687500 0.750000
vt 0.625000 0.210513
vt -0.625000 0.875000
vt -0.687500 0.750000
vt 0.625000 0.208333
vt -0.625000 0.250000
vt 0.625000 0.210526
vt -0.625000 0.875000
vt -0.687500 0.750000
vt -0.625000 0.250000
vt 0.000000 0.000000
vt 0.625000 0.208333
vt -0.687500 0.125000
vt 0.625000 0.210526
vt 0.625000 0.229167
vt 0.375000 0.229167
vt 0.625000 0.228880
vt 0.625000 0.229167
vt 0.625000 0.229167
vt 0.625000 0.229167
vt 0.625000 0.229167
vt 0.625000 0.229167
vt 0.625000 0.229167
vt 0.000000 -0.002174
vt 0.625000 0.228880
vt 0.000000 0.000000
vt 0.625000 0.229167
vt 0.625000 0.250000
vt 0.625000 0.208333
vt 0.625000 0.208333
vt -0.625000 0.250000
vt 0.625000 0.208333
vt -0.625000 0.250000
vt 0.625000 0.208333
vt -0.625000 0.250000
vt 0.625000 0.208333
vt 0.000000 0.000000
vt 0.625000 0.229167
vt 0.625000 0.208333
vt 0.625000 0.208333
vt 0.625000 0.229167
vt 0.625000 0.250000
vt 0.625000 0.208333
vt 0.625000 0.208333
vt -0.625000 0.250000
vt 0.625000 0.208333
vt -0.625000 0.250000
vt 0.625000 0.208333
vt -0.625000 0.250000
vt 0.625000 0.208333
vt 0.000000 0.000000
vt 0.625000 0.229167
vt 0.625000 0.208333
vt 0.625000 0.208333
vt 0.625000 0.229167
vt 0.625000 0.229167
vt 0.000000 -0.002174
vt 0.625000 0.228880
vt 0.000000 0.000000
vt -0.312500 0.250000
vt 0.625000 0.541667
vt 0.625000 0.208333
vt -0.375000 0.125000
vt 1.125000 1.375000
vt -0.125000 1.375000
vt -0.125000 -0.375000
vt 0.500000 -0.375000
vt 0.500000 1.375000
vt 0.625000 0.210526
vt 0.559783 0.221739
vt -0.687500 0.750000
vt -0.625000 0.875000
vt -0.625000 0.250000
vt -0.687500 0.125000
vt 0.625000 0.210526
vt -0.687500 0.750000
vt -0.625000 0.875000
vt 0.625000 0.210513
vt -0.687500 0.750000
vt -0.625000 0.875000
vt 0.625000 0.210499
vt -0.687500 0.750000
vt -0.625000 0.875000
vt 0.625000 0.210513
vt -0.687500 0.750000
vt -0.625000 0.875000
vt -0.625000 0.250000
vt 0.625000 0.208333
vt 0.625000 0.210526
vt -0.625000 0.875000
vt -0.687500 0.750000
vt -0.625000 0.250000
vt 0.000000 0.000000
vt 0.625000 0.208333
vt -0.687500 0.125000
vt 0.625000 0.210526
vt 0.625000 0.229167
vt 0.375000 0.229167
vt 0.625000 0.228880
vt 0.625000 0.229167
vt 0.625000 0.229167
vt 0.625000 0.229167
vt 0.625000 0.229167
vt 0.625000 0.229167
vt 0.625000 0.229167
vt 0.000000 -0.002174
vt 0.625000 0.228880
vt 0.000000 0.000000
vt 0.625000 0.229167
vt 0.625000 0.250000
vt 0.625000 0.208333
vt 0.625000 0.208333
vt -0.625000 0.250000
vt 0.625000 0.208333
vt -0.625000 0.250000
vt 0.625000 0.208333
vt -0.625000 0.250000
vt 0.625000 0.208333
vt 0.000000 0.000000
vt 0.625000 0.229167
vt 0.625000 0.208333
vt 0.625000 0.208333
vt 0.625000 0.229167
vt 0.625000 0.250000
vt 0.625000 0.208333
vt 0.625000 0.208333
vt -0.625000 0.250000
vt 0.625000 0.208333
vt -0.625000 0.250000
vt 0.625000 0.208333
vt -0.625000 0.250000
vt 0.625000 0.208333
vt 0.000000 0.000000
vt 0.625000 0.229167
vt 0.625000 0.208333
vt 0.625000 0.208333
s 0
usemtl concrete
f 91/149/2 90/148/2 5/9/2 6/10/2
f 178/279/3 167/264/3 170/271/3 179/282/3
f 118/190/4 128/202/4 131/205/4 13/22/4
f 190/297/5 166/263/5 169/269/5 189/296/5
f 177/278/7 164/259/7 167/264/7 178/279/7
f 187/293/8 166/263/8 190/297/8
f 176/277/9 162/256/9 164/259/9 177/278/9
f 119/191/4 62/98/4 63/99/4 118/190/4
f 175/276/10 160/253/10 162/256/10 176/277/10
f 90/148/2 20/40/2 141/219/2 138/216/2
f 174/275/11 158/250/11 160/253/11 175/276/11
f 173/274/12 154/244/12 158/250/12 174/275/12
f 192/299/13 74/121/13 25/47/13 199/310/13 198/308/13
f 73/120/13 150/234/13 25/48/13 74/121/13
f 72/118/2 16/31/2 17/32/2 67/106/2
f 74/121/2 192/299/2 191/298/2 17/32/2
f 12/19/1 48/81/1 149/232/1
f 149/231/1 148/230/1 3/7/1 4/8/1 7/11/1 8/12/1 12/19/1
f 148/230/14 149/233/14 21/41/14 27/52/14
f 200/311/15 199/310/15 25/47/15 28/54/15
f 3/7/16 148/230/16 27/52/16 30/57/16
f 197/307/17 200/311/17 28/54/17
f 4/8/18 3/7/18 30/57/18 36/65/18
f 7/11/19 4/8/19 36/65/19 38/68/19
f 8/12/20 7/11/20 38/68/20 42/73/20
f 193/300/21 195/303/21 43/74/21
f 12/19/22 8/12/22 42/73/22 49/82/22
f 194/301/23 193/300/23 43/74/23 67/106/23
f 17/32/2 191/298/2 194/301/2 67/106/2
f 172/273/4 171/272/4 50/83/4 54/87/4
f 171/272/4 151/237/4 184/287/4 181/284/4
f 16/31/2 73/120/2 74/121/2 17/32/2
f 141/219/24 20/40/24 76/124/24 140/218/24
f 92/150/25 69/112/25 77/126/25 93/151/25
f 140/218/26 76/124/26 142/221/26
f 93/151/27 77/126/27 79/129/27 94/152/27
f 94/152/28 79/129/28 81/132/28 95/153/28
f 95/153/29 81/132/29 83/135/29 96/154/29
f 144/225/30 85/138/30 147/229/30
f 96/154/31 83/135/31 86/140/31 97/155/31
f 147/229/32 85/138/32 88/145/32 146/228/32
f 97/155/33 86/140/33 89/147/33 98/158/33
f 98/156/1 92/150/1 93/151/1 94/152/1 95/153/1 96/154/1 97/155/1
f 92/150/1 98/157/1 70/113/1
f 5/9/2 90/148/2 138/216/2 139/217/2
f 9/13/2 20/40/2 90/148/2 91/149/2
f 6/10/34 5/9/34 88/146/34 99/159/34
f 139/217/34 145/226/34 146/228/34 88/145/34 5/9/34
f 120/192/35 121/193/35 105/168/35 101/162/35
f 121/193/36 122/194/36 107/171/36 105/168/36
f 122/194/37 123/195/37 109/174/37 107/171/37
f 123/195/38 124/196/38 111/177/38 109/174/38
f 134/211/39 137/215/39 113/180/39
f 124/196/40 125/197/40 114/182/40 111/177/40
f 137/215/41 136/214/41 116/187/41 113/180/41
f 125/197/42 126/200/42 117/189/42 114/182/42
f 126/198/1 125/197/1 124/196/1 123/195/1 122/194/1 121/193/1 120/192/1
f 120/192/1 102/163/1 126/199/1
f 63/99/4 129/203/4 128/202/4 118/190/4
f 2/5/4 119/191/4 118/190/4 13/22/4
f 62/98/34 127/201/34 116/186/34 63/99/34
f 129/203/34 63/99/34 116/187/34 136/214/34 135/212/34
f 132/207/43 104/167/43 130/204/43
f 131/205/44 130/204/44 104/167/44 13/23/44
f 91/149/6 6/10/6 99/159/6 127/201/6 62/98/6 119/191/6 2/6/6 45/78/6 31/58/6 51/84/6 9/14/6
f 102/163/45 120/192/45 128/202/45 129/203/45
f 101/162/46 105/168/46 130/204/46 131/205/46
f 107/171/47 109/174/47 133/209/47 132/207/47
f 109/174/48 111/177/48 134/211/48 133/209/48
f 126/199/49 102/163/49 129/203/49 135/212/49
f 114/182/50 117/189/50 136/214/50 137/215/50
f 120/192/45 101/162/45 131/205/45 128/202/45
f 117/189/49 126/200/49 135/213/49 136/214/49
f 105/168/51 107/171/51 132/207/51 130/204/51
f 111/177/52 114/182/52 137/215/52 134/211/52
f 92/150/53 70/113/53 139/217/53 138/216/53
f 77/126/54 69/112/54 141/219/54 140/218/54
f 81/132/55 79/129/55 142/221/55 143/223/55
f 83/135/56 81/132/56 143/223/56 144/225/56
f 70/113/57 98/157/57 145/226/57 139/217/57
f 89/147/58 86/140/58 147/229/58 146/228/58
f 69/112/53 92/150/53 138/216/53 141/219/53
f 98/158/57 89/147/57 146/228/57 145/227/57
f 79/129/59 77/126/59 140/218/59 142/221/59
f 86/140/60 83/135/60 144/225/60 147/229/60
f 179/280/1 173/274/1 174/275/1 175/276/1 176/277/1 177/278/1 178/279/1
f 173/274/1 179/281/1 155/245/1
f 50/83/4 171/272/4 181/284/4 182/285/4
f 66/103/4 151/237/4 171/272/4 172/273/4
f 54/87/13 50/83/13 169/268/13 180/283/13
f 182/285/13 188/294/13 189/296/13 169/269/13 50/83/13
f 185/289/61 183/286/61 157/249/61
f 184/287/62 151/238/62 157/249/62 183/286/62
f 16/31/6 72/119/6 59/94/6 65/102/6 61/97/6 66/104/6 172/273/6 54/87/6 180/283/6 150/234/6 73/120/6
f 155/245/45 182/285/45 181/284/45 173/274/45
f 154/244/63 184/287/63 183/286/63 158/250/63
f 160/253/64 185/289/64 186/291/64 162/256/64
f 162/256/65 186/291/65 187/293/65 164/259/65
f 179/281/66 188/294/66 182/285/66 155/245/66
f 167/264/67 190/297/67 189/296/67 170/271/67
f 173/274/45 181/284/45 184/287/45 154/244/45
f 170/271/66 189/296/66 188/295/66 179/282/66
f 158/250/68 183/286/68 185/289/68 160/253/68
f 164/259/69 187/293/69 190/297/69 167/264/69
f 12/19/53 191/298/53 192/299/53 48/81/53
f 42/73/70 193/300/70 194/301/70 49/82/70
f 36/65/71 196/305/71 195/303/71 38/68/71
f 30/57/72 197/307/72 196/305/72 36/65/72
f 48/81/73 192/299/73 198/308/73 149/232/73
f 21/41/74 199/310/74 200/311/74 27/52/74
f 49/82/53 194/301/53 191/298/53 12/19/53
f 149/233/73 198/309/73 199/310/73 21/41/73
f 38/68/75 195/303/75 193/300/75 42/73/75
f 27/52/76 200/311/76 197/307/76 30/57/76
usemtl asphalt_blank
f 153/242/1 161/254/1 159/251/1 156/246/1 15/26/1
f 152/241/1 168/266/1 165/260/1 163/257/1 161/254/1 153/242/1
f 2/6/4 13/20/4 1/1/4 24/45/4
f 24/45/4 1/1/4 14/24/4 23/44/4
f 23/44/4 14/24/4 15/27/4 22/42/4
f 45/78/6 2/6/6 24/45/6 46/79/6
f 46/79/6 24/45/6 23/44/6 47/80/6
f 47/80/6 23/44/6 22/42/6 60/95/6
f 71/114/2 68/107/2 18/33/2 11/17/2
f 11/17/2 18/33/2 19/35/2 10/15/2
f 10/15/2 19/35/2 20/40/2 9/13/2
f 57/91/1 18/34/1 68/108/1 58/93/1
f 41/72/1 35/63/1 152/239/1 153/243/1
f 40/71/1 100/160/1 35/63/1 41/72/1
f 53/86/6 33/60/6 64/100/6 55/88/6
f 52/85/6 32/59/6 33/60/6 53/86/6
f 51/84/6 31/58/6 32/59/6 52/85/6
f 1/2/1 40/71/1 41/72/1 14/25/1
f 14/25/1 41/72/1 153/243/1 15/29/1
f 58/92/1 68/109/1 44/76/1 39/69/1 37/66/1
f 152/241/1 58/92/1 37/66/1 34/61/1 29/55/1 26/49/1
f 33/60/6 47/80/6 60/95/6 64/100/6
f 32/59/6 46/79/6 47/80/6 33/60/6
f 31/58/6 45/78/6 46/79/6 32/59/6
f 9/14/6 51/84/6 52/85/6 10/16/6
f 10/16/6 52/85/6 53/86/6 11/18/6
f 11/18/6 53/86/6 55/88/6 71/115/6
f 35/64/1 57/91/1 58/93/1 152/240/1
f 100/161/1 56/90/1 57/91/1 35/64/1
f 18/34/1 57/91/1 56/90/1 19/36/1
f 72/119/6 71/116/6 55/89/6 59/94/6
f 65/102/6 64/101/6 60/96/6 61/97/6
f 59/94/6 55/89/6 64/101/6 65/102/6
f 71/117/2 72/118/2 67/106/2 68/111/2
f 61/97/6 60/96/6 22/43/6 66/104/6
f 66/104/4 22/43/4 15/30/4 151/236/4
f 100/161/1 87/142/1 84/137/1 82/134/1 80/131/1 56/90/1
f 56/90/1 80/131/1 78/128/1 75/123/1 19/38/1
f 100/161/1 40/71/1 108/173/1 110/176/1 112/179/1 115/184/1
f 40/71/1 1/4/1 103/165/1 106/170/1 108/173/1
f 100/161/1 115/184/1 87/143/1
f 87/143/34 115/184/34 116/188/34 127/201/34 99/159/34 88/146/34
f 152/241/1 26/51/1 168/266/1
f 26/51/13 25/48/13 150/234/13 180/283/13 169/270/13 168/266/13
usemtl asphalt_top_side
f 166/262/1 165/261/1 168/265/1 169/267/1
f 187/292/1 163/258/1 165/261/1 166/262/1
f 186/290/1 161/255/1 163/258/1 187/292/1
f 185/288/1 159/252/1 161/255/1 186/290/1
f 157/248/1 156/247/1 159/252/1 185/288/1
f 151/235/1 15/28/1 156/247/1 157/248/1
f 28/53/1 25/46/1 26/50/1 29/56/1
f 197/306/1 28/53/1 29/56/1 34/62/1
f 196/304/1 197/306/1 34/62/1 37/67/1
f 195/302/1 196/304/1 37/67/1 39/70/1
f 43/75/1 195/302/1 39/70/1 44/77/1
f 67/105/1 43/75/1 44/77/1 68/110/1
f 20/39/1 19/37/1 75/122/1 76/125/1
f 76/125/1 75/122/1 78/127/1 142/220/1
f 142/220/1 78/127/1 80/130/1 143/222/1
f 143/222/1 80/130/1 82/133/1 144/224/1
f 144/224/1 82/133/1 84/136/1 85/139/1
f 85/139/1 84/136/1 87/141/1 88/144/1
f 13/21/1 104/166/1 103/164/1 1/3/1
f 104/166/1 132/206/1 106/169/1 103/164/1
f 132/206/1 133/208/1 108/172/1 106/169/1
f 133/208/1 134/210/1 110/175/1 108/172/1
f 134/210/1 113/181/1 112/178/1 110/175/1
f 113/181/1 116/185/1 115/183/1 112/178/1
