# Blender 3.5.1
# www.blender.org
mtllib road_corner.mtl
o corner1-col
v 5.000000 0.250000 -2.006611
v 5.000000 0.250000 5.000000
v 5.000000 0.000000 5.000000
v 5.000000 0.250000 0.000000
v 5.000000 0.250000 2.006611
v 5.000000 0.250000 3.083333
v 5.000000 0.000000 3.083333
v 5.000000 0.000000 2.006611
v 5.000000 0.000000 0.000000
v 5.000000 0.000000 -2.006611
v 5.000000 0.000000 -3.083333
v -3.660254 0.000000 0.000000
v 2.407650 0.250000 -3.503305
v 0.669873 0.250000 -2.500000
v -1.067903 0.250000 -1.496695
v -2.000372 0.250000 -0.958333
v -2.000371 0.000000 -0.958333
v -1.067903 0.000000 -1.496695
v 0.669873 0.000000 -2.500000
v 2.407650 0.000000 -3.503306
v -2.126320 0.450000 -1.001087
v -3.660254 0.250000 0.000000
v -2.071068 0.250000 2.071068
v 2.411809 0.250000 4.659258
v 2.883355 0.000000 -2.883354
v 1.464466 0.000000 -1.464466
v 0.045578 0.000000 -0.045578
v -0.715779 0.000000 0.715779
v -0.715780 0.250000 0.715780
v 0.045578 0.250000 -0.045578
v 1.464466 0.250000 -1.464466
v 2.883355 0.250000 -2.883354
v -2.071068 0.000000 2.071068
v 0.000000 0.000000 3.660254
v 3.503306 0.250000 -2.407649
v 2.500000 0.250000 -0.669873
v 1.496695 0.250000 1.067903
v 0.958333 0.250000 2.000372
v 0.958334 0.000000 2.000371
v 1.496695 0.000000 1.067903
v 2.500000 0.000000 -0.669873
v 3.503306 0.000000 -2.407649
v 5.000000 0.000000 -5.000000
v 5.000000 0.250000 -5.000000
v 0.000000 0.250000 3.660254
v 2.981774 0.450000 2.918492
v 4.225254 0.000000 -2.108608
v 3.705905 0.000000 -0.170371
v 3.186556 0.000000 1.767866
v 2.907880 0.000000 2.807900
v 2.907879 0.250000 2.807901
v 3.186556 0.250000 1.767866
v 3.705905 0.250000 -0.170371
v 5.000000 0.250000 -3.083333
v 4.225254 0.250000 -2.108608
v 2.411809 0.000000 4.659258
v 4.900000 0.450000 -3.197362
v 4.900000 0.450000 -4.900000
v 4.503930 0.250000 -3.148642
v 4.530035 0.450000 -3.246068
v 3.644712 0.250000 -3.644712
v 2.108609 0.250000 -4.225254
v 3.148642 0.250000 -4.503931
v 2.006611 0.250000 -5.000000
v 3.083333 0.250000 -5.000000
v 3.197361 0.450000 -4.900001
v 5.000000 0.250000 -4.041667
v 5.000000 0.000000 -4.041667
v 4.900000 0.450000 -4.041667
v 4.751965 0.450000 -4.074321
v 4.170059 0.450000 -4.520833
v 4.074321 0.450000 -4.751966
v 4.041667 0.450000 -4.900000
v 3.083333 0.000000 -5.000000
v -4.659258 0.000000 -2.411810
v 0.170371 0.250000 -3.705905
v -1.767866 0.250000 -3.186556
v -2.807900 0.250000 -2.907880
v -2.807899 0.000000 -2.907879
v -1.767866 0.000000 -3.186556
v 0.170371 0.000000 -3.705905
v 2.108609 0.000000 -4.225254
v -2.866728 0.450000 -2.788589
v -4.659258 0.250000 -2.411810
v -5.000000 0.000000 -5.000000
v 0.000000 0.250000 -5.000000
v -2.006610 0.250000 -5.000000
v -3.083333 0.250000 -5.000000
v -3.083332 0.000000 -5.000000
v -2.006610 0.000000 -5.000000
v 0.000000 0.000000 -5.000000
v 2.006611 0.000000 -5.000000
v -3.083333 0.400000 -5.000000
v -5.000000 0.400000 -5.000000
v -5.000000 0.250000 -5.000000
v 0.827882 0.450000 2.026321
v -0.029588 0.450000 3.511502
v -4.523233 0.450000 -2.344730
v 4.900000 0.450000 3.171031
v 4.900000 0.450000 4.885972
v -1.919727 0.450000 2.061148
v -3.611502 0.450000 -0.143617
v -0.707081 0.450000 0.848502
v 2.537915 0.450000 4.574997
v 4.041667 0.250000 -3.340118
v 4.041667 0.400000 -3.340118
v 4.520833 0.450000 -4.170059
v 3.644712 0.400000 -3.644712
v 4.322356 0.450000 -4.322356
v 3.340118 0.250000 -4.041667
v 3.427468 0.450000 -4.092098
v 3.246068 0.450000 -4.530036
v 5.000000 0.400000 -4.041667
v 5.000000 0.400000 -5.000000
v 4.503930 0.400000 -3.148642
v 5.000000 0.400000 -3.083333
v 4.041667 0.400000 -5.000000
v 3.083333 0.400000 -5.000000
v 4.092098 0.450000 -3.427468
v 3.716033 0.450000 -3.716033
v 3.340118 0.400000 -4.041667
v 3.148642 0.400000 -4.503931
v 1.001087 0.450000 2.126321
v -0.848503 0.450000 0.707081
v 0.143617 0.450000 3.611502
v -2.061148 0.450000 1.919727
v 5.000000 0.400000 3.083333
v 5.000000 0.400000 5.000000
v 2.788589 0.450000 2.866729
v 2.344729 0.450000 4.523233
v -2.026320 0.450000 -0.827882
v -3.511502 0.450000 0.029588
v -2.918491 0.450000 -2.981774
v -4.574997 0.450000 -2.537915
v -2.071068 0.400000 2.071068
v -3.660254 0.400000 0.000000
v -2.000372 0.400000 -0.958333
v -0.715780 0.400000 0.715780
v 0.958333 0.400000 2.000372
v 0.000000 0.400000 3.660254
v 2.411809 0.400000 4.659258
v 2.907879 0.400000 2.807901
v -4.659258 0.400000 -2.411810
v -4.885972 0.450000 -4.900000
v -2.807900 0.400000 -2.907880
v -3.171031 0.450000 -4.900000
vn 1.0000 -0.0000 -0.0000
vn -0.0000 -1.0000 -0.0000
vn -0.0000 1.0000 -0.0000
vn -0.7934 -0.0000 0.6088
vn -0.6088 -0.0000 0.7934
vn 0.6088 -0.0000 -0.7934
vn 0.7934 -0.0000 -0.6088
vn -0.3827 -0.0000 0.9239
vn 0.3827 -0.0000 -0.9239
vn -0.1305 -0.0000 0.9914
vn 0.1305 -0.0000 -0.9914
vn -0.9914 -0.0000 0.1305
vn -0.0000 -0.0000 -1.0000
vn -0.9239 -0.0000 0.3827
vn 0.9239 -0.0000 -0.3827
vn 0.9914 -0.0000 -0.1305
vn 0.4472 0.8944 -0.0000
vn -0.0584 0.8944 0.4434
vn -0.0000 0.8944 -0.4472
vn -0.1711 0.8944 0.4132
vn -0.2722 0.8944 0.3548
vn -0.3548 0.8944 0.2722
vn -0.4132 0.8944 0.1711
vn -0.4434 0.8944 0.0584
vn 0.2722 0.8944 -0.3548
vn -0.3162 0.8944 -0.3162
vn 0.3873 0.8944 0.2236
vn 0.0584 0.8944 -0.4434
vn -0.4320 0.8944 -0.1157
vn 0.2236 0.8944 0.3873
vn 0.4132 0.8944 -0.1711
vn -0.1157 0.8944 -0.4320
vn 0.3548 0.8944 -0.2722
vn 0.3162 0.8944 0.3162
vn -0.3873 0.8944 -0.2236
vn 0.4320 0.8944 0.1157
vn 0.4434 0.8944 -0.0584
vn -0.2236 0.8944 -0.3873
vn 0.1711 0.8944 -0.4132
vn 0.1157 0.8944 0.4320
vt 0.625000 0.583333
vt 0.312500 0.875000
vt 0.625000 0.750000
vt 0.375000 0.750000
vt 0.625000 0.625000
vt 0.937500 0.875000
vt 0.625000 0.666667
vt 0.625000 0.708333
vt 0.937500 0.250000
vt 0.375000 0.708333
vt 0.375000 0.666667
vt 0.375000 0.625000
vt 0.375000 0.583333
vt 0.375000 0.541667
vt 0.375000 0.208333
vt 0.375000 0.750000
vt 1.125000 -0.375000
vt 0.000000 0.875000
vt -0.125000 -0.375000
vt 1.125000 0.500000
vt -0.125000 0.500000
vt 1.125000 1.375000
vt 0.562500 0.875000
vt -0.125000 1.375000
vt 0.937500 0.875000
vt 0.562500 0.250000
vt 0.937500 0.250000
vt 0.625000 0.708333
vt 0.375000 0.708333
vt 0.375000 0.666667
vt 0.375000 0.625000
vt 0.375000 0.583333
vt 0.625000 0.710526
vt 0.625000 0.750000
vt 0.625000 0.750000
vt 0.625000 0.750000
vt 0.375000 0.583333
vt 0.375000 0.625000
vt 0.375000 0.666667
vt 0.375000 0.708333
vt 0.625000 0.708333
vt 0.937500 0.250000
vt 0.500000 1.375000
vt 0.937500 0.875000
vt -0.125000 -0.375000
vt 0.500000 0.500000
vt -0.125000 0.500000
vt 0.500000 -0.375000
vt -0.125000 1.375000
vt 0.000000 0.875000
vt 0.375000 0.750000
vt 0.375000 0.750000
vt 0.500000 1.375000
vt 0.000000 0.875000
vt 0.500000 0.500000
vt 0.562500 0.875000
vt 0.500000 -0.375000
vt 0.562500 0.250000
vt 0.625000 0.708333
vt 0.375000 0.708333
vt 0.375000 0.666667
vt 0.375000 0.625000
vt 0.375000 0.583333
vt 0.375000 0.250000
vt 0.625000 0.250000
vt 0.625000 0.750000
vt 0.625000 0.710526
vt 0.375000 0.583333
vt 0.375000 0.625000
vt 0.375000 0.666667
vt 0.375000 0.708333
vt 0.937500 0.250000
vt 0.562500 0.250000
vt 0.625000 0.708333
vt 0.937500 0.875000
vt 1.125000 -0.375000
vt 0.562500 0.875000
vt 0.625000 0.666667
vt 1.125000 0.500000
vt 0.625000 0.625000
vt 0.625000 0.541667
vt 0.312500 0.250000
vt 0.625000 0.208333
vt -0.375000 0.125000
vt 0.625000 0.583333
vt 1.125000 1.375000
vt 0.000000 0.875000
vt 0.375000 0.750000
vt 0.625000 0.210526
vt 0.559783 0.221739
vt 0.000000 0.250000
vt -0.687500 0.125000
vt 0.625000 0.210526
vt 0.000000 0.250000
vt -0.687500 0.125000
vt 0.000000 0.875000
vt 0.500000 -0.375000
vt 0.625000 0.583333
vt 0.625000 0.208333
vt 0.000000 0.250000
vt -0.687500 0.125000
vt 0.000000 0.875000
vt 0.625000 0.583333
vt 0.000000 0.250000
vt 0.625000 0.208333
vt 0.000000 0.000000
vt 0.625000 0.210526
vt 0.625000 0.229167
vt 0.375000 0.229167
vt 0.625000 0.228880
vt 0.625000 0.229167
vt 0.625000 0.229167
vt 0.625000 0.229167
vt 0.625000 0.229167
vt 0.000000 -0.002174
vt 0.625000 0.228880
vt 0.000000 0.000000
vt 0.375000 0.750000
vt 0.500000 0.500000
vt 0.625000 0.625000
vt 0.500000 1.375000
vt 0.625000 0.666667
vt 0.562500 0.875000
vt 0.562500 0.250000
vt 0.625000 0.708333
vt 0.375000 0.708333
vt 0.375000 0.666667
vt 0.375000 0.625000
vt 0.375000 0.583333
vt 0.625000 0.710526
vt 0.625000 0.750000
vt 0.375000 0.750000
vt 0.625000 0.625000
vt 0.625000 0.666667
vt 0.937500 0.875000
vt 0.625000 0.708333
vt 0.937500 0.250000
vt 0.375000 0.708333
vt 0.375000 0.666667
vt 0.375000 0.625000
vt 0.375000 0.583333
vt 0.625000 0.708333
vt 0.625000 0.750000
vt 0.625000 0.750000
vt 0.625000 0.710526
vt 0.625000 0.747807
vt 0.625000 0.747807
vt 0.625000 0.710526
vt 0.625000 0.747807
vt 0.625000 0.747807
vt 0.625000 0.747807
vt 0.625000 0.710526
vt 0.625000 0.747807
vt 0.000000 0.250000
vt -0.687500 0.125000
vt 0.625000 0.208333
vt 0.625000 0.229167
vt 0.625000 0.208333
vt 0.625000 0.229167
vt 0.000000 0.250000
vt -0.687500 0.125000
vt 0.625000 0.210526
vt 0.625000 0.210526
vt 0.625000 0.229167
vt 0.625000 0.250000
vt 0.625000 0.208333
vt 0.625000 0.208333
vt 0.000000 0.000000
vt 0.625000 0.229167
vt 0.625000 0.208333
vt 0.625000 0.210526
vt 0.625000 0.210526
vt 0.625000 0.208333
vt 0.625000 0.208333
vt 0.625000 0.710526
vt 0.625000 0.710526
vt 0.625000 0.747807
vt 0.625000 0.747807
vt 0.625000 0.708333
vt 0.625000 0.750000
vt 0.625000 0.710526
vt 0.625000 0.747807
vt 0.625000 0.710526
vt 0.625000 0.747807
vt 0.625000 0.710526
vt 0.625000 0.747807
vt 0.625000 0.750000
vt 0.625000 0.750000
vt 0.625000 0.708333
vt 0.625000 0.708333
vt 0.625000 0.708333
vt 0.625000 0.750000
vt 0.625000 0.750000
vt 0.625000 0.708333
vt 0.625000 0.750000
vt 0.625000 0.747807
vt 0.625000 0.708333
vt 0.625000 0.710526
s 0
usemtl concrete
f 2/3/1 6/8/1 127/179/1 128/180/1
f 50/71/2 56/88/2 34/52/2 39/60/2
f 7/10/1 6/8/1 2/3/1 3/4/1
f 67/108/1 113/164/1 116/167/1 54/83/1
f 68/109/1 43/64/1 44/65/1 67/108/1
f 33/51/4 23/35/4 22/34/4 12/16/4
f 45/66/5 140/192/5 135/187/5 23/35/5
f 39/60/2 34/52/2 33/51/2 28/40/2
f 139/191/6 38/59/6 29/41/6 138/190/6
f 138/190/7 29/41/7 16/28/7 137/189/7
f 56/88/8 24/36/8 45/66/8 34/52/8
f 28/40/2 33/51/2 12/16/2 17/29/2
f 23/35/4 135/187/4 136/188/4 22/34/4
f 34/52/5 45/66/5 23/35/5 33/51/5
f 24/36/8 140/192/8 45/66/8
f 142/194/9 51/74/9 139/191/9
f 3/4/10 2/3/10 24/36/10 56/88/10
f 7/10/2 3/4/2 56/88/2 50/71/2
f 127/179/11 6/8/11 51/74/11 142/194/11
f 2/3/10 128/180/10 141/193/10 24/36/10
f 69/110/3 70/111/3 60/93/3 57/89/3
f 122/174/12 118/170/12 65/105/12 63/99/12
f 72/113/3 73/116/3 66/107/3 112/163/3
f 73/114/3 72/113/3 71/112/3 109/159/3 107/157/3 70/111/3 69/110/3
f 69/110/3 58/90/3 73/115/3
f 44/65/1 114/165/1 113/164/1 67/108/1
f 11/15/1 68/109/1 67/108/1 54/83/1
f 43/64/13 74/117/13 65/106/13 44/65/13
f 114/165/13 44/65/13 65/105/13 118/170/13 117/168/13
f 116/167/10 115/166/10 59/92/10 54/84/10
f 17/29/2 12/16/2 75/118/2 79/126/2
f 22/34/14 136/188/14 84/131/14
f 137/189/15 78/125/15 145/197/15
f 12/16/14 22/34/14 84/131/14 75/118/14
f 75/118/12 84/131/12 95/144/12 85/132/12
f 79/126/2 75/118/2 85/132/2 89/138/2
f 84/131/12 143/195/12 94/143/12 95/144/12
f 145/197/16 78/125/16 88/136/16 93/142/16
f 139/191/9 51/74/9 38/59/9
f 78/125/15 137/189/15 16/28/15
f 140/192/8 24/36/8 141/193/8
f 84/131/14 136/188/14 143/195/14
f 144/196/3 134/186/3 133/185/3 146/198/3
f 59/92/8 115/166/8 106/156/8 105/155/8
f 60/93/3 70/111/3 107/157/3 119/171/3
f 105/155/5 106/156/5 108/158/5 61/95/5
f 119/171/3 107/157/3 109/159/3 120/172/3
f 61/95/4 108/158/4 121/173/4 110/161/4
f 120/172/3 109/159/3 71/112/3 111/162/3
f 110/161/14 121/173/14 122/174/14 63/101/14
f 111/162/3 71/112/3 72/113/3 112/163/3
f 58/90/17 69/110/17 113/164/17 114/165/17
f 57/89/18 60/93/18 115/166/18 116/167/18
f 73/115/19 58/90/19 114/165/19 117/168/19
f 69/110/17 57/89/17 116/167/17 113/164/17
f 66/107/19 73/116/19 117/169/19 118/170/19
f 60/93/20 119/171/20 106/156/20 115/166/20
f 119/171/21 120/172/21 108/158/21 106/156/21
f 120/172/22 111/162/22 121/173/22 108/158/22
f 111/162/23 112/163/23 122/174/23 121/173/23
f 112/163/24 66/107/24 118/170/24 122/174/24
f 21/33/3 83/130/3 98/147/3 102/151/3
f 126/178/3 124/176/3 131/183/3 132/184/3
f 103/152/3 101/150/3 97/146/3 96/145/3
f 123/175/3 125/177/3 130/182/3 129/181/3
f 99/148/3 46/67/3 104/153/3 100/149/3
f 103/152/25 96/145/25 139/191/25 138/190/25
f 97/146/21 101/150/21 135/187/21 140/192/21
f 99/148/17 100/149/17 128/180/17 127/179/17
f 101/150/26 103/152/26 138/190/26 135/187/26
f 96/145/27 97/146/27 140/192/27 139/191/27
f 46/67/28 99/148/28 127/179/28 142/194/28
f 100/149/18 104/153/18 141/193/18 128/180/18
f 104/153/29 46/67/29 142/194/29 141/193/29
f 21/33/30 102/151/30 136/188/30 137/189/30
f 83/130/31 21/33/31 137/189/31 145/197/31
f 98/147/32 83/130/32 145/197/32 143/195/32
f 102/151/23 98/147/23 143/195/23 136/188/23
f 126/178/22 132/184/22 136/188/22 135/187/22
f 131/183/33 124/176/33 138/190/33 137/189/33
f 124/176/34 126/178/34 135/187/34 138/190/34
f 125/177/35 123/175/35 139/191/35 140/192/35
f 129/181/36 130/182/36 141/193/36 142/194/36
f 134/186/24 144/196/24 94/143/24 143/195/24
f 146/198/37 133/185/37 145/197/37 93/142/37
f 132/184/38 131/183/38 137/189/38 136/188/38
f 130/182/20 125/177/20 140/192/20 141/193/20
f 123/175/39 129/181/39 142/194/39 139/191/39
f 133/185/40 134/186/40 143/195/40 145/197/40
f 144/196/19 146/198/19 93/142/19 94/143/19
f 95/144/13 94/143/13 93/142/13 88/137/13 89/138/13 85/132/13
usemtl asphalt_blank
f 11/14/1 54/81/1 1/1/1 10/13/1
f 10/13/1 1/1/1 4/5/1 9/12/1
f 9/12/1 4/5/1 5/7/1 8/11/1
f 8/11/1 5/7/1 6/8/1 7/10/1
f 4/5/3 1/1/3 55/85/3 53/80/3
f 9/12/2 8/11/2 49/70/2 48/69/2
f 49/70/2 50/71/2 39/60/2 40/61/2
f 40/61/2 39/60/2 28/40/2 27/39/2
f 42/63/2 41/62/2 26/38/2 25/37/2
f 27/39/2 28/40/2 17/29/2 18/30/2
f 48/69/2 49/70/2 40/61/2 41/62/2
f 47/68/2 48/69/2 41/62/2 42/63/2
f 25/37/2 26/38/2 19/31/2 20/32/2
f 41/62/2 40/61/2 27/39/2 26/38/2
f 26/38/2 27/39/2 18/30/2 19/31/2
f 8/11/2 7/10/2 50/71/2 49/70/2
f 5/7/3 4/5/3 53/80/3 52/78/3
f 10/13/2 9/12/2 48/69/2 47/68/2
f 20/32/2 19/31/2 81/128/2 82/129/2
f 18/30/2 17/29/2 79/126/2 80/127/2
f 19/31/2 18/30/2 80/127/2 81/128/2
f 81/128/2 80/127/2 90/139/2 91/140/2
f 82/129/2 81/128/2 91/140/2 92/141/2
f 76/120/3 62/98/3 64/103/3 86/133/3
f 80/127/2 79/126/2 89/138/2 90/139/2
f 77/122/3 76/120/3 86/133/3 87/134/3
f 10/13/2 47/68/2 42/63/2 25/37/2 20/32/2 82/129/2 92/141/2 74/117/2 43/64/2 68/109/2 11/15/2
f 65/106/13 74/117/13 92/141/13 91/140/13 90/139/13 89/138/13 88/137/13 87/135/13 86/133/13 64/103/13
usemtl asphalt_top_side
f 51/72/3 52/75/3 37/56/3 38/58/3
f 29/42/3 30/44/3 15/23/3 16/26/3
f 38/58/3 37/56/3 30/44/3 29/42/3
f 6/9/3 5/6/3 52/77/3 51/73/3
f 54/82/3 59/91/3 55/87/3 1/2/3
f 59/91/3 105/154/3 35/54/3 55/87/3
f 105/154/3 61/94/3 32/50/3 35/54/3
f 61/94/3 110/160/3 13/18/3 32/50/3
f 110/160/3 63/100/3 62/96/3 13/18/3
f 63/100/3 65/104/3 64/102/3 62/96/3
f 16/27/3 15/25/3 77/123/3 78/124/3
f 78/124/3 77/123/3 87/135/3 88/137/3
usemtl ashpalt_ylw_solid
f 52/76/3 53/79/3 36/55/3 37/57/3
f 30/43/3 31/46/3 14/20/3 15/22/3
f 31/46/3 32/48/3 13/17/3 14/20/3
f 53/79/3 55/86/3 35/53/3 36/55/3
f 37/57/3 36/55/3 31/47/3 30/45/3
f 36/55/3 35/53/3 32/49/3 31/47/3
f 14/21/3 13/19/3 62/97/3 76/119/3
f 15/24/3 14/21/3 76/119/3 77/121/3
