# Blender 3.5.1
# www.blender.org
mtllib road_3way.mtl
o inter_3way1-col
v 2.006611 0.250000 5.000000
v 3.083333 0.000000 5.000000
v -5.000000 0.250000 5.000000
v -5.000000 0.000000 5.000000
v 5.000000 0.250000 -5.000000
v 5.000000 0.000000 -5.000000
v -5.000000 0.250000 -5.000000
v -5.000000 0.000000 -5.000000
v 3.083333 0.000000 -5.000000
v 2.006611 0.000000 -5.000000
v -0.000000 0.000000 -5.000000
v -2.006611 0.000000 -5.000000
v -3.083333 0.000000 -5.000000
v 3.083333 0.250000 5.000000
v 2.006611 0.250000 5.000000
v 0.000000 0.250000 5.000000
v -2.006611 0.250000 5.000000
v -3.083333 0.250000 5.000000
v -3.083333 0.250000 -5.000000
v -2.006611 0.250000 -5.000000
v -0.000000 0.250000 -5.000000
v 2.006611 0.250000 -5.000000
v 3.083333 0.250000 -5.000000
v -3.083333 0.000000 5.000000
v -2.006611 0.000000 5.000000
v 0.000000 0.000000 5.000000
v 2.006611 0.000000 5.000000
v 3.083333 0.000000 5.000000
v -4.900000 0.450000 4.900000
v -4.900000 0.450000 -4.900000
v -3.183333 0.450000 4.900000
v -3.183333 0.450000 -4.900000
v -5.000000 0.250000 0.000000
v -5.000000 0.000000 0.000000
v 3.083333 0.000000 -0.000000
v 2.006611 0.000000 -0.000000
v 0.000000 0.000000 0.000000
v -2.006611 0.000000 0.000000
v -3.083333 0.000000 0.000000
v 2.006611 0.250000 -0.000000
v 0.000000 0.250000 0.000000
v -2.006611 0.250000 0.000000
v -3.083333 0.250000 0.000000
v -4.900000 0.450000 0.100000
v -3.183333 0.450000 0.100000
v -5.000000 0.000000 2.500000
v 2.006611 0.250000 2.500000
v 0.000000 0.250000 2.500000
v -2.006611 0.250000 2.500000
v -3.083333 0.250000 2.500000
v -3.183333 0.450000 2.400000
v -5.000000 0.250000 2.500000
v 3.083333 0.000000 2.500000
v 2.006611 0.000000 2.500000
v 0.000000 0.000000 2.500000
v -2.006611 0.000000 2.500000
v -3.083333 0.000000 2.500000
v -4.900000 0.450000 2.400000
v -5.000000 0.250000 -2.500000
v 3.083333 0.000000 -2.500000
v 2.006611 0.000000 -2.500000
v -0.000000 0.000000 -2.500000
v -2.006611 0.000000 -2.500000
v -3.083333 0.000000 -2.500000
v -4.900000 0.450000 -2.600000
v -5.000000 0.000000 -2.500000
v 2.006611 0.250000 -2.500000
v -0.000000 0.250000 -2.500000
v -2.006611 0.250000 -2.500000
v -3.083333 0.250000 -2.500000
v -3.183333 0.450000 -2.600000
v -4.900000 0.450000 -2.400000
v -5.000000 0.400000 -5.000000
v 5.000000 0.000000 5.000000
v 5.000000 0.250000 5.000000
v -3.083333 0.400000 -5.000000
v -4.900000 0.450000 2.600000
v -4.900000 0.450000 -0.100000
v -3.183333 0.450000 -0.100000
v -3.183333 0.450000 2.600000
v -3.183333 0.450000 -2.400000
v -3.083333 0.400000 5.000000
v -5.000000 0.400000 5.000000
v 3.197362 0.450000 -4.900000
v 4.900000 0.450000 -4.900000
v -3.083333 0.400000 2.500000
v -3.083333 0.400000 -2.500000
v -3.083333 0.400000 0.000000
v -5.000000 0.400000 0.000000
v -5.000000 0.400000 2.500000
v -5.000000 0.400000 -2.500000
v 2.108608 0.250000 -4.225254
v 3.148642 0.250000 -4.503930
v 3.246219 0.453771 -4.528894
v 2.407649 0.250000 -3.503306
v 3.427658 0.311762 -4.090835
v 2.883354 0.250000 -2.883355
v 3.715131 0.315858 -3.715131
v 3.503306 0.250000 -2.407650
v 4.090835 0.311762 -3.427658
v 4.225254 0.250000 -2.108609
v 4.503931 0.250000 -3.148642
v 4.528895 0.453771 -3.246218
v 5.000000 0.250000 -2.006611
v 5.000000 0.250000 -3.083333
v 4.900001 0.450000 -3.197361
v 4.041667 0.250000 -5.000000
v 4.041667 0.000000 -5.000000
v 4.041667 0.450000 -4.900000
v 4.074321 0.450000 -4.751965
v 4.170059 0.450000 -4.520833
v 4.322356 0.450000 -4.322356
v 4.520833 0.450000 -4.170059
v 4.751966 0.450000 -4.074321
v 4.900000 0.450000 -4.041667
v 5.000000 0.000000 -3.083333
v 3.083333 0.250000 5.000000
v 2.006611 0.250000 -0.000000
v 2.006611 0.250000 2.500000
v 3.197362 0.460000 4.900000
v 4.900000 0.460000 4.900000
v 2.108608 0.250000 4.225254
v 3.148642 0.250000 4.503930
v 3.246219 0.463771 4.528894
v 2.407649 0.250000 3.503306
v 3.427658 0.321762 4.090835
v 2.883354 0.250000 2.883355
v 3.715131 0.325858 3.715131
v 3.503306 0.250000 2.407650
v 4.090835 0.321762 3.427658
v 4.225254 0.250000 2.108609
v 4.503931 0.250000 3.148642
v 4.528895 0.463771 3.246218
v 5.000000 0.250000 2.006611
v 5.000000 0.250000 3.083333
v 4.900001 0.460000 3.197361
v 4.041667 0.250000 5.000000
v 4.041667 0.000000 5.000000
v 4.041667 0.460000 4.900000
v 4.074321 0.460000 4.751965
v 4.170059 0.460000 4.520833
v 4.322356 0.460000 4.322356
v 4.520833 0.460000 4.170059
v 4.751966 0.460000 4.074321
v 4.900000 0.460000 4.041667
v 5.000000 0.000000 3.083333
v 4.041667 0.400000 5.000000
v 5.000000 0.400000 5.000000
v 3.148642 0.400000 4.503930
v 3.083333 0.400000 5.000000
v 3.340118 0.250000 4.041667
v 3.644712 0.250000 3.644712
v 4.041667 0.250000 3.340118
v 5.000000 0.400000 4.041667
v 5.000000 0.400000 3.083333
v 4.503931 0.400000 3.148642
v 4.041667 0.400000 -5.000000
v 5.000000 0.400000 -5.000000
v 3.148642 0.400000 -4.503930
v 3.083333 0.400000 -5.000000
v 3.340118 0.250000 -4.041667
v 3.644712 0.250000 -3.644712
v 4.041667 0.250000 -3.340118
v 5.000000 0.400000 -4.041667
v 5.000000 0.400000 -3.083333
v 4.503931 0.400000 -3.148642
vn -0.0000 -0.0000 1.0000
vn -1.0000 -0.0000 -0.0000
vn -0.0000 -0.0000 -1.0000
vn -0.0000 -1.0000 -0.0000
vn 1.0000 -0.0000 -0.0000
vn -0.0000 1.0000 -0.0000
vn -0.4472 0.8944 -0.0000
vn -0.0000 0.8944 -0.4472
vn 0.4472 0.8944 -0.0000
vn -0.0000 0.8944 0.4472
vn -0.9914 -0.0000 0.1305
vn 0.0013 1.0000 -0.0075
vn -0.9239 -0.0000 0.3827
vn 0.0022 0.9784 0.2067
vn -0.1288 0.9874 0.0916
vn -0.0916 0.9874 0.1289
vn -0.3827 -0.0000 0.9239
vn -0.2067 0.9784 -0.0022
vn -0.1305 -0.0000 0.9914
vn 0.0075 1.0000 -0.0013
vn 0.0013 1.0000 0.0075
vn 0.0022 0.9784 -0.2067
vn -0.1288 0.9874 -0.0916
vn -0.0916 0.9874 -0.1289
vn -0.3827 -0.0000 -0.9239
vn -0.2067 0.9784 0.0022
vn -0.1305 -0.0000 -0.9914
vn 0.0075 1.0000 0.0013
vn -0.9239 -0.0000 -0.3827
vn -0.9914 -0.0000 -0.1305
vn -0.0000 0.8575 0.5145
vn -0.5209 0.8512 -0.0649
vn -0.4763 0.8019 -0.3607
vn -0.3607 0.8019 -0.4763
vn 0.5145 0.8575 -0.0000
vn -0.0649 0.8512 -0.5209
vn -0.4140 0.8015 -0.4315
vn -0.4315 0.8015 -0.4140
vn -0.4556 0.8884 0.0561
vn -0.4320 0.8407 0.3266
vn -0.3266 0.8407 0.4320
vn -0.0561 0.8884 0.4556
vn -0.3545 0.8364 0.4181
vn -0.4181 0.8364 0.3545
vt -0.312500 0.875000
vt -0.375000 0.750000
vt 0.375000 0.208333
vt 0.625000 0.750000
vt 0.375000 0.750000
vt 0.625000 0.250000
vt 0.375000 0.250000
vt 0.625000 0.000000
vt 0.625000 1.000000
vt 0.375000 1.000000
vt 0.375000 0.000000
vt 0.125000 0.750000
vt 0.375000 0.208333
vt 0.125000 0.541667
vt 0.375000 0.166667
vt 0.125000 0.583333
vt 0.375000 0.125000
vt 0.125000 0.625000
vt 0.375000 0.083333
vt 0.125000 0.666667
vt 0.375000 0.041667
vt 0.125000 0.708333
vt 0.625000 0.541667
vt 0.625000 0.583333
vt -0.125000 -0.375000
vt 0.625000 0.625000
vt -0.125000 0.500000
vt 0.625000 0.666667
vt -0.125000 1.375000
vt 1.000000 0.875000
vt 0.625000 0.708333
vt 1.000000 0.250000
vt 0.875000 0.708333
vt 0.000000 0.250000
vt 0.625000 0.041667
vt 0.625000 0.083333
vt 1.125000 1.375000
vt 0.000000 0.875000
vt 0.625000 0.125000
vt 1.125000 0.500000
vt 0.625000 0.166667
vt 1.125000 -0.375000
vt -0.312500 0.875000
vt -0.375000 0.750000
vt -0.312500 0.250000
vt 0.625000 0.208333
vt 0.375000 0.708333
vt 0.375000 0.666667
vt 0.375000 0.625000
vt 0.375000 0.583333
vt 0.375000 0.541667
vt 0.627500 0.747500
vt 0.872500 0.747500
vt 0.627500 0.710833
vt 0.872500 0.710833
vt 0.625000 0.875000
vt 0.250000 0.750000
vt 0.375000 0.875000
vt 0.250000 0.541667
vt 0.250000 0.583333
vt 0.250000 0.625000
vt 0.250000 0.666667
vt 0.250000 0.708333
vt 1.125000 -0.375000
vt -0.125000 -0.375000
vt 1.125000 0.500000
vt -0.125000 0.500000
vt 1.125000 1.375000
vt 0.500000 0.875000
vt -0.125000 1.375000
vt 0.500000 0.250000
vt 0.750000 0.708333
vt 0.747500 0.747500
vt 0.747500 0.710833
vt 0.375000 0.812500
vt 0.312500 0.750000
vt 0.500000 -0.375000
vt 0.500000 0.500000
vt 0.500000 1.375000
vt 0.750000 0.875000
vt 0.687500 0.708333
vt 0.750000 0.250000
vt 0.690000 0.710833
vt 0.625000 0.812500
vt 0.312500 0.541667
vt 0.312500 0.583333
vt 0.312500 0.625000
vt 0.312500 0.666667
vt 0.312500 0.708333
vt 0.690000 0.747500
vt 0.625000 0.937500
vt 0.187500 0.541667
vt 0.187500 0.583333
vt 0.187500 0.625000
vt 0.187500 0.666667
vt 0.187500 0.708333
vt 0.815000 0.747500
vt 0.187500 0.750000
vt 0.375000 0.937500
vt 0.500000 -0.375000
vt 0.500000 0.500000
vt 0.250000 0.875000
vt 0.500000 1.375000
vt 0.250000 0.250000
vt 0.812500 0.708333
vt 0.815000 0.710833
vt 0.810000 0.747500
vt 0.625000 0.000000
vt 0.625000 1.000000
vt 0.875000 0.750000
vt 0.375000 0.250000
vt 0.625000 0.250000
vt 0.625000 0.041667
vt 0.875000 0.708333
vt 0.685000 0.747500
vt 0.752500 0.747500
vt 0.752500 0.710833
vt 0.685000 0.710833
vt 0.810000 0.710833
vt 0.625000 0.708333
vt 0.625000 0.750000
vt 0.625000 0.210526
vt 0.559783 0.221739
vt 0.687500 0.708333
vt 0.812500 0.708333
vt 0.750000 0.708333
vt 0.625000 0.875000
vt 0.750000 0.750000
vt 0.625000 0.812500
vt 0.687500 0.750000
vt 0.625000 0.937500
vt 0.812500 0.750000
vt -0.625000 0.875000
vt -0.687500 0.750000
vt 0.625000 0.208333
vt -0.625000 0.250000
vt 0.625000 0.210526
vt -0.625000 0.875000
vt -0.687500 0.750000
vt 0.625000 0.210513
vt -0.625000 0.875000
vt -0.687500 0.750000
vt 0.625000 0.210499
vt -0.625000 0.875000
vt -0.687500 0.750000
vt 0.625000 0.210513
vt -0.625000 0.875000
vt -0.687500 0.750000
vt 0.625000 0.208333
vt -0.625000 0.250000
vt 0.625000 0.210526
vt -0.625000 0.875000
vt -0.687500 0.750000
vt 0.000000 0.000000
vt -0.625000 0.250000
vt 0.625000 0.208333
vt 0.000000 0.000000
vt 0.625000 0.210526
vt 0.625000 0.229167
vt 0.375000 0.229167
vt 0.625000 0.228880
vt 0.625000 0.229167
vt 0.625000 0.229167
vt 0.625000 0.229167
vt 0.625000 0.229167
vt 0.625000 0.229167
vt 0.625000 0.229167
vt 0.000000 -0.002174
vt 0.625000 0.228880
vt 0.000000 0.000000
vt -0.312500 0.250000
vt 0.625000 0.208333
vt -0.375000 0.125000
vt -0.125000 -0.375000
vt 0.500000 -0.375000
vt 0.625000 0.210526
vt 0.559783 0.221739
vt -0.625000 0.875000
vt -0.687500 0.750000
vt -0.625000 0.250000
vt -0.687500 0.125000
vt 0.625000 0.210526
vt -0.625000 0.875000
vt -0.687500 0.750000
vt 0.625000 0.210513
vt -0.625000 0.875000
vt -0.687500 0.750000
vt 0.625000 0.210499
vt -0.625000 0.875000
vt -0.687500 0.750000
vt 0.625000 0.210513
vt -0.625000 0.875000
vt -0.687500 0.750000
vt 0.625000 0.208333
vt -0.625000 0.250000
vt 0.625000 0.210526
vt -0.625000 0.875000
vt -0.687500 0.750000
vt -0.625000 0.250000
vt 0.000000 0.000000
vt 0.625000 0.208333
vt -0.687500 0.125000
vt 0.625000 0.210526
vt 0.625000 0.229167
vt 0.375000 0.229167
vt 0.625000 0.228880
vt 0.625000 0.229167
vt 0.625000 0.229167
vt 0.625000 0.229167
vt 0.625000 0.229167
vt 0.625000 0.229167
vt 0.625000 0.229167
vt 0.000000 -0.002174
vt 0.625000 0.228880
vt 0.000000 0.000000
vt 0.625000 0.229167
vt 0.625000 0.250000
vt 0.625000 0.208333
vt 0.625000 0.208333
vt -0.625000 0.250000
vt 0.625000 0.208333
vt -0.625000 0.250000
vt 0.625000 0.208333
vt -0.625000 0.250000
vt 0.625000 0.208333
vt 0.000000 0.000000
vt 0.625000 0.229167
vt 0.625000 0.208333
vt 0.625000 0.208333
vt 0.625000 0.229167
vt 0.625000 0.250000
vt 0.625000 0.208333
vt 0.625000 0.208333
vt -0.625000 0.250000
vt 0.625000 0.208333
vt -0.625000 0.250000
vt 0.625000 0.208333
vt -0.625000 0.250000
vt 0.625000 0.208333
vt 0.000000 0.000000
vt 0.625000 0.229167
vt 0.625000 0.208333
vt 0.625000 0.208333
s 0
usemtl concrete
f 3/4/1 18/31/1 82/120/1 83/121/1
f 66/99/2 59/91/2 7/9/2 8/10/2
f 108/160/3 107/159/3 5/6/3 6/7/3
f 57/89/4 24/47/4 4/5/4 46/76/4
f 24/47/1 18/31/1 3/4/1 4/5/1
f 137/204/1 147/216/1 150/219/1 117/172/1
f 8/11/3 7/8/3 19/35/3 13/21/3
f 70/105/5 19/33/5 76/114/5 87/125/5
f 71/106/6 32/55/6 30/53/6 65/97/6
f 138/205/1 74/111/1 75/112/1 137/204/1
f 52/84/2 3/4/2 83/121/2 90/129/2
f 19/35/3 7/8/3 73/108/3 76/113/3
f 107/159/3 23/46/3 160/233/3 157/230/3
f 59/91/2 33/56/2 89/127/2 91/131/2
f 51/83/6 45/74/6 44/73/6 58/90/6
f 50/81/5 43/72/5 88/126/5 86/124/5
f 64/96/4 39/63/4 34/57/4 66/98/4
f 46/75/2 52/84/2 33/56/2 34/58/2
f 4/5/2 3/4/2 52/84/2 46/75/2
f 18/31/5 50/81/5 86/124/5 82/120/5
f 31/54/6 80/118/6 77/115/6 29/52/6
f 33/56/2 52/84/2 90/129/2 89/127/2
f 39/63/4 57/89/4 46/76/4 34/57/4
f 13/22/4 64/96/4 66/98/4 8/12/4
f 7/9/2 59/91/2 91/131/2 73/109/2
f 79/117/6 81/119/6 72/107/6 78/116/6
f 43/72/5 70/105/5 87/125/5 88/126/5
f 34/58/2 33/56/2 59/91/2 66/99/2
f 65/97/7 30/53/7 73/110/7 91/132/7
f 30/53/8 32/55/8 76/114/8 73/110/8
f 58/90/7 44/73/7 89/128/7 90/130/7
f 44/73/8 45/74/8 88/126/8 89/128/8
f 45/74/9 51/83/9 86/124/9 88/126/9
f 51/83/10 58/90/10 90/130/10 86/124/10
f 32/55/9 71/106/9 87/125/9 76/114/9
f 71/106/10 65/97/10 91/132/10 87/125/10
f 31/54/10 29/52/10 83/121/10 82/120/10
f 80/118/9 31/54/9 82/120/9 86/124/9
f 81/119/9 79/117/9 88/126/9 87/125/9
f 79/117/10 78/116/10 89/128/10 88/126/10
f 29/52/7 77/115/7 90/130/7 83/121/7
f 77/115/8 80/118/8 86/124/8 90/130/8
f 78/116/7 72/107/7 91/132/7 89/128/7
f 72/107/8 81/119/8 87/125/8 91/132/8
f 160/233/11 23/46/11 93/135/11 159/232/11
f 109/161/12 84/122/12 94/137/12 110/162/12
f 159/232/13 93/135/13 161/235/13
f 110/162/14 94/137/14 96/140/14 111/163/14
f 111/163/15 96/140/15 98/143/15 112/164/15
f 112/164/16 98/143/16 100/146/16 113/165/16
f 163/239/17 102/149/17 166/243/17
f 113/165/18 100/146/18 103/151/18 114/166/18
f 166/243/19 102/149/19 105/156/19 165/242/19
f 114/166/20 103/151/20 106/158/20 115/169/20
f 115/167/6 109/161/6 110/162/6 111/163/6 112/164/6 113/165/6 114/166/6
f 109/161/6 115/168/6 85/123/6
f 5/6/3 107/159/3 157/230/3 158/231/3
f 9/13/3 23/46/3 107/159/3 108/160/3
f 6/7/5 5/6/5 105/157/5 116/170/5
f 158/231/5 164/240/5 165/242/5 105/156/5 5/6/5
f 139/206/21 140/207/21 124/182/21 120/176/21
f 140/207/22 141/208/22 126/185/22 124/182/22
f 141/208/23 142/209/23 128/188/23 126/185/23
f 142/209/24 143/210/24 130/191/24 128/188/24
f 153/225/25 156/229/25 132/194/25
f 143/210/26 144/211/26 133/196/26 130/191/26
f 156/229/27 155/228/27 135/201/27 132/194/27
f 144/211/28 145/214/28 136/203/28 133/196/28
f 145/212/6 144/211/6 143/210/6 142/209/6 141/208/6 140/207/6 139/206/6
f 139/206/6 121/177/6 145/213/6
f 75/112/1 148/217/1 147/216/1 137/204/1
f 2/3/1 138/205/1 137/204/1 117/172/1
f 74/111/5 146/215/5 135/200/5 75/112/5
f 148/217/5 75/112/5 135/201/5 155/228/5 154/226/5
f 151/221/29 123/181/29 149/218/29
f 150/219/30 149/218/30 123/181/30 117/173/30
f 108/160/4 6/7/4 116/170/4 146/215/4 74/111/4 138/205/4 2/3/4 28/51/4 53/85/4 35/59/4 60/92/4 9/14/4
f 121/177/31 139/206/31 147/216/31 148/217/31
f 120/176/32 124/182/32 149/218/32 150/219/32
f 126/185/33 128/188/33 152/223/33 151/221/33
f 128/188/34 130/191/34 153/225/34 152/223/34
f 145/213/35 121/177/35 148/217/35 154/226/35
f 133/196/36 136/203/36 155/228/36 156/229/36
f 139/206/31 120/176/31 150/219/31 147/216/31
f 136/203/35 145/214/35 154/227/35 155/228/35
f 124/182/37 126/185/37 151/221/37 149/218/37
f 130/191/38 133/196/38 156/229/38 153/225/38
f 109/161/8 85/123/8 158/231/8 157/230/8
f 94/137/39 84/122/39 160/233/39 159/232/39
f 98/143/40 96/140/40 161/235/40 162/237/40
f 100/146/41 98/143/41 162/237/41 163/239/41
f 85/123/9 115/168/9 164/240/9 158/231/9
f 106/158/42 103/151/42 166/243/42 165/242/42
f 84/122/8 109/161/8 157/230/8 160/233/8
f 115/169/9 106/158/9 165/242/9 164/241/9
f 96/140/43 94/137/43 159/232/43 161/235/43
f 103/151/44 100/146/44 163/239/44 166/243/44
usemtl asphalt_ylw_dash
f 68/101/6 21/40/6 20/37/6 69/103/6
f 48/78/6 41/66/6 42/68/6 49/79/6
f 47/77/6 40/64/6 41/66/6 48/78/6
f 15/25/6 47/77/6 48/78/6 16/27/6
f 16/27/6 48/78/6 49/79/6 17/29/6
f 41/67/6 68/101/6 69/103/6 42/70/6
f 40/65/6 67/100/6 68/101/6 41/67/6
f 21/40/6 68/101/6 67/100/6 22/42/6
usemtl asphalt_blank
f 28/51/1 14/23/1 15/24/1 27/50/1
f 27/50/1 15/24/1 16/26/1 26/49/1
f 26/49/1 16/26/1 17/28/1 25/48/1
f 25/48/1 17/28/1 18/31/1 24/47/1
f 53/85/4 28/51/4 27/50/4 54/86/4
f 54/86/4 27/50/4 26/49/4 55/87/4
f 55/87/4 26/49/4 25/48/4 56/88/4
f 56/88/4 25/48/4 24/47/4 57/89/4
f 13/21/3 19/35/3 20/36/3 12/19/3
f 12/19/3 20/36/3 21/39/3 11/17/3
f 11/17/3 21/39/3 22/41/3 10/15/3
f 10/15/3 22/41/3 23/46/3 9/13/3
f 63/95/4 38/62/4 39/63/4 64/96/4
f 62/94/4 37/61/4 38/62/4 63/95/4
f 61/93/4 36/60/4 37/61/4 62/94/4
f 60/92/4 35/59/4 36/60/4 61/93/4
f 38/62/4 56/88/4 57/89/4 39/63/4
f 37/61/4 55/87/4 56/88/4 38/62/4
f 36/60/4 54/86/4 55/87/4 37/61/4
f 35/59/4 53/85/4 54/86/4 36/60/4
f 9/14/4 60/92/4 61/93/4 10/16/4
f 10/16/4 61/93/4 62/94/4 11/18/4
f 11/18/4 62/94/4 63/95/4 12/20/4
f 12/20/4 63/95/4 64/96/4 13/22/4
f 40/65/6 104/153/6 101/148/6 99/145/6 97/142/6 67/100/6
f 67/100/6 97/142/6 95/139/6 92/134/6 22/44/6
f 118/174/6 119/175/6 127/187/6 129/190/6 131/193/6 134/198/6
f 119/175/6 1/2/6 122/179/6 125/184/6 127/187/6
f 118/174/6 134/198/6 104/154/6
f 104/154/5 134/198/5 135/202/5 146/215/5 116/170/5 105/157/5
usemtl asphalt_top_side
f 69/102/6 20/38/6 19/34/6 70/104/6
f 49/80/6 42/69/6 43/71/6 50/82/6
f 17/30/6 49/80/6 50/82/6 18/32/6
f 42/69/6 69/102/6 70/104/6 43/71/6
f 23/45/6 22/43/6 92/133/6 93/136/6
f 93/136/6 92/133/6 95/138/6 161/234/6
f 161/234/6 95/138/6 97/141/6 162/236/6
f 162/236/6 97/141/6 99/144/6 163/238/6
f 163/238/6 99/144/6 101/147/6 102/150/6
f 102/150/6 101/147/6 104/152/6 105/155/6
f 117/171/6 123/180/6 122/178/6 1/1/6
f 123/180/6 151/220/6 125/183/6 122/178/6
f 151/220/6 152/222/6 127/186/6 125/183/6
f 152/222/6 153/224/6 129/189/6 127/186/6
f 153/224/6 132/195/6 131/192/6 129/189/6
f 132/195/6 135/199/6 134/197/6 131/192/6
